name analog
datacolumns 19
datarows 28
range 0.0 0.0135
endheader
time	ground_force_vx	ground_force_vy	ground_force_vz	ground_force_px	ground_force_py	ground_force_pz	l_ground_force_vx	l_ground_force_vy	l_ground_force_vz	l_ground_force_px	l_ground_force_py	l_ground_force_pz	ground_torque_x	ground_torque_y	ground_torque_z	l_ground_torque_x	l_ground_torque_y	l_ground_torque_z
0.0	-0.0	-0.0	-0.0	-1.6416728496551514	49.966304779052734	-428.7604370117188	2.3685784339904785	-54.54747772216797	-351.14178466796875	-0.0	-0.0	-0.0	-0.0	-0.0	-0.0	66814.0859375	35914.640625	-7223.49951171875
0.0005	-0.0	-0.0	-0.0	-1.4366977214813232	49.87710571289063	-429.85693359375	2.980609178543091	-54.83882522583008	-351.90948486328125	-0.0	-0.0	-0.0	-0.0	-0.0	-0.0	67127.90625	36169.78515625	-7273.615234375
0.001	-0.0	-0.0	-0.0	-2.116187810897827	50.41181564331055	-429.24945068359375	2.6438729763031006	-55.29842758178711	-351.5241394042969	-0.0	-0.0	-0.0	-0.0	-0.0	-0.0	67146.359375	36325.625	-7359.97265625
0.0015	-0.0	-0.0	-0.0	-1.2128491401672363	50.4838752746582	-429.4290466308594	2.8295531272888184	-54.918853759765625	-351.1060485839844	-0.0	-0.0	-0.0	-0.0	-0.0	-0.0	67237.3828125	36149.26171875	-7264.9736328125
0.002	-0.0	-0.0	-0.0	-1.453887939453125	50.49358749389648	-430.63134765625	2.4653005599975586	-55.23666763305664	-352.747314453125	-0.0	-0.0	-0.0	-0.0	-0.0	-0.0	67163.515625	36292.69921875	-7262.263671875
0.0025	-0.0	-0.0	-0.0	-1.3911243677139282	50.58985900878906	-431.3761901855469	2.714191198348999	-55.06768035888672	-353.0963439941406	-0.0	-0.0	-0.0	-0.0	-0.0	-0.0	67213.40625	36149.3671875	-7241.2431640625
0.003	-0.0	-0.0	-0.0	-1.6057891845703125	50.34882354736328	-430.9452209472656	2.670835494995117	-55.16529846191406	-353.8984375	-0.0	-0.0	-0.0	-0.0	-0.0	-0.0	67643.6953125	36386.078125	-7330.302734375
0.0035	-0.0	-0.0	-0.0	-1.0241680145263672	50.4577751159668	-430.068603515625	2.8483657836914062	-55.06023788452149	-353.83221435546875	-0.0	-0.0	-0.0	-0.0	-0.0	-0.0	67154.453125	36150.6171875	-7398.30517578125
0.004	-0.0	-0.0	-0.0	-1.30169939994812	50.820613861083984	-431.9789733886719	2.51995849609375	-55.41075134277344	-352.70849609375	-0.0	-0.0	-0.0	-0.0	-0.0	-0.0	67373.1953125	36196.63671875	-7312.88916015625
0.0045000000000000005	-0.0	-0.0	-0.0	-1.2489471435546875	50.67870330810547	-430.4053955078125	2.5364880561828613	-55.36130905151367	-352.9923095703125	-0.0	-0.0	-0.0	-0.0	-0.0	-0.0	67148.5	36040.31640625	-7300.8193359375
0.005	-0.0	-0.0	-0.0	-1.4113569259643557	50.53694152832031	-431.52252197265625	2.441328525543213	-55.148773193359375	-352.1515197753906	-0.0	-0.0	-0.0	-0.0	-0.0	-0.0	67158.0703125	36017.57421875	-7350.20166015625
0.0055	-0.0	-0.0	-0.0	-1.086391568183899	50.83057403564453	-431.2955017089844	2.54639220237732	-55.11273193359375	-352.1512145996094	-0.0	-0.0	-0.0	-0.0	-0.0	-0.0	67117.0234375	36419.96484375	-7478.7578125
0.006	-0.0	-0.0	-0.0	-1.6320239305496216	51.21327209472656	-430.3808898925781	2.4678666591644287	-55.08666229248047	-351.8817443847656	-0.0	-0.0	-0.0	-0.0	-0.0	-0.0	67010.4296875	36186.79296875	-7279.92626953125
0.006500000000000001	-0.0	-0.0	-0.0	-1.6999667882919312	51.03493881225586	-431.0869445800781	2.4054510593414307	-55.21126937866211	-351.7389831542969	-0.0	-0.0	-0.0	-0.0	-0.0	-0.0	67180.609375	36207.0859375	-7321.841796875
0.007	-0.0	-0.0	-0.0	-1.9519063234329224	50.81975555419922	-432.5232238769531	2.3744540214538574	-55.01905822753906	-351.8617248535156	-0.0	-0.0	-0.0	-0.0	-0.0	-0.0	66874.8046875	36160.77734375	-7321.83935546875
0.0075	-0.0	-0.0	-0.0	-1.4796206951141355	51.2977294921875	-432.1282653808594	2.609166145324707	-55.0244140625	-351.34918212890625	-0.0	-0.0	-0.0	-0.0	-0.0	-0.0	66863.1953125	36074.48046875	-7300.75341796875
0.008	-0.0	-0.0	-0.0	-1.784210205078125	51.21298599243164	-431.98236083984375	2.4212355613708496	-54.82183837890625	-349.8083190917969	-0.0	-0.0	-0.0	-0.0	-0.0	-0.0	66800.2109375	36015.73046875	-7288.6015625
0.0085	-0.0	-0.0	-0.0	-2.267362356185913	50.604000091552734	-431.4390258789063	2.2804722785949707	-54.5615234375	-349.2119445800781	-0.0	-0.0	-0.0	-0.0	-0.0	-0.0	66925.2734375	35874.375	-7402.15576171875
0.009000000000000001	-0.0	-0.0	-0.0	-1.9143049716949463	51.14600372314453	-431.2915344238281	2.2697136402130127	-54.50522994995117	-350.5482177734375	-0.0	-0.0	-0.0	-0.0	-0.0	-0.0	66826.4375	35884.0703125	-7339.24755859375
0.0095	-0.0	-0.0	-0.0	-2.3194732666015625	51.08643341064453	-431.27728271484375	2.4688613414764404	-54.63032531738281	-349.9519958496094	-0.0	-0.0	-0.0	-0.0	-0.0	-0.0	66638.0703125	36131.95703125	-7377.47509765625
0.01	-0.0	-0.0	-0.0	-2.4687297344207764	51.12678527832031	-430.1731567382813	2.1180529594421387	-54.70787048339844	-350.3876647949219	-0.0	-0.0	-0.0	-0.0	-0.0	-0.0	66584.765625	35914.09375	-7288.74072265625
0.0105	-0.0	-0.0	-0.0	-2.4316341876983643	51.24998474121094	-432.0299377441406	2.2177696228027344	-54.34358978271485	-348.6131896972656	-0.0	-0.0	-0.0	-0.0	-0.0	-0.0	66599.140625	35722.875	-7300.9306640625
0.011	-0.0	-0.0	-0.0	-2.584383249282837	51.2384147644043	-431.3351745605469	2.395191192626953	-54.50902938842773	-348.8907775878906	-0.0	-0.0	-0.0	-0.0	-0.0	-0.0	66564.3515625	36161.91015625	-7288.46923828125
0.0115	-0.0	-0.0	-0.0	-2.5095815658569336	51.15838623046875	-430.1171569824219	2.269359827041626	-54.443119049072266	-348.2626342773437	-0.0	-0.0	-0.0	-0.0	-0.0	-0.0	66549.4140625	35939.1171875	-7246.45263671875
0.012	-0.0	-0.0	-0.0	-2.155060291290283	50.893463134765625	-431.28814697265625	2.103300094604492	-54.14119720458984	-347.8000183105469	-0.0	-0.0	-0.0	-0.0	-0.0	-0.0	66364.1953125	35672.8125	-7258.89501953125
0.0125	-0.0	-0.0	-0.0	-2.763554096221924	51.04597473144531	-430.0711364746094	2.3437416553497314	-54.35493469238281	-348.8478698730469	-0.0	-0.0	-0.0	-0.0	-0.0	-0.0	66263.7734375	35652.66015625	-7343.0146484375
0.013000000000000001	-0.0	-0.0	-0.0	-2.420692443847656	51.083717346191406	-429.2698364257813	2.432524919509888	-54.32943344116211	-348.1499938964844	-0.0	-0.0	-0.0	-0.0	-0.0	-0.0	66534.453125	35914.6328125	-7398.41552734375
0.0135	-0.0	-0.0	-0.0	-2.726248979568481	51.13517761230469	-431.1309814453125	2.357784986495972	-54.0273323059082	-347.7003479003906	-0.0	-0.0	-0.0	-0.0	-0.0	-0.0	66498.2890625	35688.3359375	-7402.322265625
